<?xml version="1.0" encoding="utf-8"?>
<!-- Generator: Adobe Illustrator 26.1.0, SVG Export Plug-In . SVG Version: 6.00 Build 0)  -->
<svg version="1.1" id="Layer_1" xmlns="http://www.w3.org/2000/svg" xmlns:xlink="http://www.w3.org/1999/xlink" x="0px" y="0px"
	 width="195px" height="56.8px" viewBox="0 0 195 56.8" style="enable-background:new 0 0 195 56.8;" xml:space="preserve">
<style type="text/css">
	.st0{fill:#FFFFFF;}
	.st1{fill:#9F3323;}
	.st2{fill:#564F23;}
	.st3{fill:#F6F5F3;}
	.st4{fill:#B22625;}
</style>
<g id="logo-united-care-old" transform="translate(-686.273 -434.409)">
	<path id="Path_103" class="st0" d="M768.6,483.4l-0.2-3.2l-0.1-1.1l-0.1-1.3l-0.1-1.2h-0.1l-0.5,1.2l-0.5,1.3l-0.4,1.1l-1.4,3.2
		H768.6z M764.1,486.7l-1.8,4.2h-4.8l8.4-17.5h5.9l1.9,17.5H769l-0.2-4.2H764.1z"/>
	<path id="Path_104" class="st0" d="M789.8,478.1l-1.6,8.4l-0.3,1.6l-0.3,1.5l-0.2,1.3h-4l0.2-1.9h-0.1l-1.1,1l-1.1,0.7l-1.1,0.3
		l-1.1,0.1l-1-0.1l-0.8-0.3l-0.6-0.5l-0.5-0.7l-0.2-0.9l-0.1-1l0.1-1.2l0.2-1.3l1.3-7.1h4.5l-1.3,6.8l-0.1,0.8l-0.1,0.8l0.1,0.5
		l0.2,0.3l0.3,0.2l0.5,0.1l0.7-0.2l0.7-0.5l0.5-0.8l0.5-1l0.4-1.4l1.1-5.6L789.8,478.1z"/>
	<path id="Path_105" class="st0" d="M790.9,487l0.7,0.3l0.9,0.4l1,0.2l1,0.1l0.6-0.1l0.4-0.2l0.2-0.2l0.1-0.3l-0.1-0.3l-0.2-0.3
		l-0.5-0.3l-0.7-0.4l-0.7-0.3l-0.7-0.5l-0.6-0.5l-0.5-0.6l-0.3-0.7l-0.1-0.8l0.1-1.1l0.5-1l0.6-0.9l1-0.7l1.1-0.5l1.3-0.3l1.5-0.1
		l1.2,0.1l0.9,0.1l0.8,0.2l0.6,0.2l-1,3.1l-0.7-0.3l-0.9-0.2l-1.1-0.1l-0.6,0.1l-0.4,0.2l-0.3,0.2l-0.1,0.3l0.2,0.4l0.5,0.4l0.8,0.4
		l0.7,0.4l0.7,0.4l0.7,0.5l0.5,0.6l0.4,0.7l0.2,0.9l-0.1,1.1l-0.4,0.9l-0.6,0.8l-0.8,0.6l-0.9,0.5l-1.1,0.3l-1.2,0.2l-1.4,0.1
		l-1.3-0.1l-1.2-0.2l-1-0.3l-0.8-0.4L790.9,487z"/>
	<path id="Path_106" class="st0" d="M809.7,474.4l-0.7,3.7h2.7l-0.7,3.3h-2.7l-0.7,3.5l-0.1,0.5l-0.1,0.5v0.5l0.1,0.4l0.2,0.3
		l0.3,0.2l0.5,0.1l1-0.1l-0.5,3.5l-0.7,0.2l-0.9,0.1l-0.9,0.1l-1.1-0.1l-0.9-0.2l-0.7-0.5l-0.5-0.6l-0.3-0.6l-0.1-0.8l0.1-0.7
		l0.1-0.8l0.2-0.9l0.9-4.5h-1.6l0.7-3.3h1.6l0.4-2.5L809.7,474.4z"/>
	<path id="Path_108" class="st0" d="M811.3,490.9l1.4-7.4l0.2-1.2l0.2-1.2l0.1-1.2l0.1-1l0.1-0.8h3.8l-0.2,2.5h0.1l0.6-0.9l0.8-0.8
		l0.8-0.6l0.9-0.4l1-0.1h0.8l-0.9,4.3h-0.6l-1,0.1l-0.8,0.3l-0.7,0.5l-0.5,0.7l-0.4,0.8l-0.3,0.9l-0.2,0.9l-0.8,4.4L811.3,490.9z"/>
	<path id="Path_109" class="st0" d="M830.9,481.2l-0.3-0.1h-0.5l-0.8,0.1l-0.8,0.5l-0.7,0.6l-0.5,0.8l-0.4,0.9l-0.2,0.9l-0.1,0.8
		l0.1,0.8l0.3,0.5l0.4,0.4l0.5,0.1l0.5-0.1l0.4-0.2l0.5-0.5l0.4-0.7l0.4-1l0.3-1.3L830.9,481.2z M829.9,490.9l0.1-2.2H830l-0.7,1
		l-0.8,0.7l-0.8,0.5l-0.9,0.3l-0.8,0.1l-1.1-0.1l-1-0.5l-0.8-0.6l-0.6-0.9L822,488l-0.1-1.3l0.1-1.2l0.2-1.1l0.4-1.2l0.5-1.1l0.7-1
		l0.8-0.9l1-0.8l1.1-0.7l1.4-0.5l1.5-0.3l1.7-0.1l1.7,0.1l1.5,0.3l1.4,0.3l-1.4,6.7l-0.2,1l-0.1,1.1l-0.1,1.3l-0.1,1.2v1.1
		L829.9,490.9z"/>
	<path id="Path_111" class="st0" d="M836.5,490.9l3.6-18.4h4.4l-3.5,18.4H836.5z"/>
	<path id="Path_113" class="st0" d="M849,476.8l-0.6-0.1l-0.6-0.3l-0.4-0.4l-0.3-0.6l-0.1-0.7l0.1-0.8l0.4-0.6l0.5-0.5l0.6-0.4
		l0.8-0.1l0.7,0.1l0.6,0.3l0.5,0.4l0.3,0.6l0.1,0.7l-0.2,0.8l-0.4,0.6l-0.5,0.5l-0.7,0.3L849,476.8L849,476.8z M843.9,490.9
		l2.4-12.8h4.5l-2.4,12.8H843.9z"/>
	<path id="Path_114" class="st0" d="M860.6,481.2l-0.3-0.1h-0.5l-0.8,0.1l-0.8,0.5l-0.7,0.6l-0.5,0.8l-0.4,0.9l-0.2,0.9l-0.1,0.8
		l0.1,0.8l0.2,0.5l0.4,0.4l0.5,0.1l0.4-0.1l0.5-0.2l0.5-0.5l0.4-0.7l0.4-1l0.4-1.3L860.6,481.2z M859.7,490.9l0.1-2.2h-0.1l-0.7,1
		l-0.8,0.7l-0.8,0.5l-0.9,0.3l-0.8,0.1l-1.1-0.1l-1-0.5l-0.8-0.6l-0.6-0.9l-0.4-1.1l-0.2-1.3l0.1-1.2l0.2-1.1l0.4-1.2l0.5-1.1l0.7-1
		l0.8-0.9l1-0.8l1.1-0.7l1.4-0.5l1.5-0.3l1.7-0.1l1.7,0.1l1.6,0.3l1.4,0.3l-1.4,6.7l-0.2,1l-0.2,1.1l-0.1,1.3l-0.1,1.2v1.1
		L859.7,490.9z"/>
	<path id="Path_115" class="st1" d="M699,451.6c0-4.5,1.7-8.9,4.8-12.2c-15.9,9.6-17.5,29.5-17.5,29.5s10.7,0,26.7,0
		C704.8,467.2,699,460,699,451.6"/>
	<path id="Path_116" class="st2" d="M721.4,434.4c9.5,2.6,15.1,12.3,12.5,21.8c-1.7,6.4-6.9,11.4-13.4,12.7l122.9,0
		c34.6,0,37.9-34.6,37.9-34.6H721.4z"/>
	<path id="Path_117" class="st0" d="M740.2,442.2v9.7c0,3.6,1.6,5.4,4.1,5.4c2.6,0,4.2-1.8,4.2-5.4v-9.7h3.3v9.6
		c0,5.6-3.1,8.1-7.7,8.1c-4.3,0-7.3-2.3-7.3-8.1v-9.6H740.2z"/>
	<path id="Path_118" class="st0" d="M753.7,450.8c0-1.5,0-2.7-0.1-3.8h2.9l0.2,2h0.1c0.9-1.5,2.6-2.4,4.3-2.3c2.2,0,4.9,1.3,4.9,5.7
		v7.2h-3.3v-6.8c0-2-0.8-3.4-2.7-3.4c-1.2,0-2.4,0.8-2.8,2c-0.1,0.3-0.2,0.6-0.1,1v7.3h-3.3L753.7,450.8z"/>
	<path id="Path_119" class="st0" d="M767.7,447h3.3v12.6h-3.3V447z M769.4,445.1c-1.1,0-2-0.9-2-2c0-1.1,0.9-2,2-2c1.1,0,2,0.9,2,2
		C771.3,444.2,770.5,445,769.4,445.1L769.4,445.1z"/>
	<path id="Path_120" class="st0" d="M777.3,443.7v3.3h3.2v2.5h-3.2v5.2c0,1.5,0.3,2.4,1.7,2.4c0.5,0,0.9,0,1.4-0.2l0.1,2.5
		c-0.8,0.3-1.6,0.4-2.5,0.4c-1.1,0-2.1-0.4-2.9-1.1c-0.8-1-1.1-2.3-1-3.6v-5.7h-1.9V447h1.9v-2.4L777.3,443.7z"/>
	<path id="Path_121" class="st0" d="M782,447h3.3v12.6H782V447z M783.7,445.1c-1.1,0-2-0.9-2-2c0-1.1,0.9-2,2-2s2,0.9,2,2
		C785.6,444.2,784.8,445,783.7,445.1L783.7,445.1z"/>
	<path id="Path_122" class="st0" d="M787.5,450.8c0-1.5,0-2.7-0.1-3.8h2.9l0.2,2h0.1c0.9-1.5,2.6-2.4,4.3-2.3c2.2,0,4.9,1.3,4.9,5.7
		v7.2h-3.3v-6.8c0-2-0.8-3.4-2.7-3.4c-1.2,0-2.4,0.8-2.8,2c-0.1,0.3-0.2,0.6-0.1,1v7.3h-3.3L787.5,450.8z"/>
	<path id="Path_123" class="st0" d="M810.7,453.8c0,0.4,0,0.8-0.1,1.1c-0.4,1.3-1.6,2.1-3,2.1c-1.9,0-3.5-1.6-3.5-3.5
		c0-0.1,0-0.2,0-0.3c0-2.6,1.6-4.1,3.5-4.1c1.4,0,2.6,0.9,3,2.2c0.1,0.3,0.1,0.6,0.1,0.8L810.7,453.8z M814,450.5
		c0-1.7,0-2.7,0.1-3.5h-2.9l-0.1,1.8H811c-0.9-1.4-2.5-2.2-4.1-2.1c-3.5,0-6.3,2.9-6.2,6.4c0,0.1,0,0.2,0,0.3
		c-0.2,3.2,2.3,5.9,5.5,6.1c0.1,0,0.3,0,0.4,0c1.6,0.1,3.2-0.7,4.1-2h0.1v1.1c0,2.9-1.8,4-4,4c-1.4,0-2.9-0.4-4.1-1.1l-0.7,2.5
		c1.5,0.8,3.2,1.2,4.9,1.1c1.9,0.1,3.7-0.5,5.2-1.6c1.5-1.3,2-3.3,2-5.9L814,450.5z"/>
	<path id="Path_124" class="st3" d="M828.7,459.1c-1.5,0.5-3,0.8-4.6,0.7c-4.7,0-8-2.8-8-7.5c-0.2-3.6,1.6-7,4.7-8.9
		c1.9-1.1,4.1-1.7,6.3-1.6c1.3,0,2.6,0.2,3.8,0.7l-1.2,3.6c-1-0.3-2-0.5-3-0.5c-1.3,0-2.5,0.3-3.6,1.1c-1.5,1.3-2.4,3.2-2.3,5.1
		c0,2.6,1.6,4.2,4.3,4.2c1.1,0,2.1-0.2,3.1-0.5L828.7,459.1z"/>
	<path id="Path_125" class="st3" d="M837.8,452.5c-0.5,3-1.6,3.8-2.4,3.8c-0.8,0-1.3-0.6-1.3-1.8c0-1.9,1.4-4.6,3.4-4.6
		c0.3,0,0.5,0,0.8,0.1L837.8,452.5z M841.5,459.6c0-1.9,0.2-3.8,0.5-5.6l1.3-6.6c-1.5-0.5-3-0.7-4.5-0.7c-6.5,0-9.2,4.5-9.2,8.8
		c0,2.7,1.6,4.5,3.9,4.5c1.7,0,3.2-1,4-2.5h0.1c0,0.7-0.1,1.5-0.1,2.2L841.5,459.6z"/>
	<path id="Path_126" class="st3" d="M842.9,459.6l1.4-7.3c0.4-2,0.5-4.4,0.7-5.4h3.8c-0.1,0.8-0.1,1.7-0.2,2.6h0.1
		c0.7-1.6,2.3-2.7,4.1-2.8c0.3,0,0.5,0,0.7,0l-0.9,4.3c-0.2,0-0.4,0-0.6,0c-2.6,0-3.5,2-3.9,4.4l-0.8,4.3L842.9,459.6z"/>
	<path id="Path_127" class="st3" d="M861.3,450.6c0,0.8-0.9,1.2-3.6,1.2c0.2-1.2,1.3-2,2.5-2C860.8,449.8,861.2,450.2,861.3,450.6
		L861.3,450.6z M863.2,455.7c-1.1,0.5-2.4,0.8-3.6,0.8c-0.8,0.1-1.6-0.2-2.3-0.6c-0.2-0.2-0.4-0.5-0.5-0.8c5.3,0.2,8.2-1.2,8.2-4.3
		c0-2.6-2.1-4-4.7-4c-4.2,0-7.6,3.3-7.6,7.5c0,0.1,0,0.2,0,0.3c0,3.5,2,5.5,5.8,5.5c1.7,0,3.4-0.3,5-1L863.2,455.7z"/>
	<path id="Path_128" class="st2" d="M716.6,467.5c8.7,0,15.7-7,15.8-15.7c0-8.7-7-15.7-15.7-15.8c-8.7,0-15.7,7-15.8,15.7
		c0,0,0,0,0,0C700.9,460.4,707.9,467.5,716.6,467.5L716.6,467.5"/>
	<path id="Path_129" class="st0" d="M716.6,467.9c-8.9,0-16.2-7.2-16.2-16.1c0-8.9,7.2-16.2,16.1-16.2c8.9,0,16.2,7.2,16.2,16.1
		c0,0,0,0,0,0C732.7,460.7,725.5,467.9,716.6,467.9 M716.6,436.5c-8.4,0-15.3,6.8-15.3,15.2c0,8.4,6.8,15.3,15.2,15.3
		c8.4,0,15.3-6.8,15.3-15.2c0,0,0,0,0,0C731.8,443.3,725,436.5,716.6,436.5"/>
	<path id="Path_130" class="st0" d="M725.9,452.5c-0.4,5.2-5,9-10.1,8.5c-2.9-0.2-5.5-1.8-7.1-4.3l-2.4,0.2c0.1-1,0.6-1.9,1.4-2.5
		c-0.2-0.6-0.3-1.3-0.4-1.9h-4.4c0.4,7.6,6.9,13.4,14.5,12.9c7-0.4,12.5-6,12.9-12.9L725.9,452.5z"/>
	<path id="Path_131" class="st0" d="M714.5,438.2c0.6-0.2,1.2-0.3,1.9-0.2c0.7,0,1.4,0,2,0.2v6.9l10.1,0c0.4,0.5,0.7,1.1,0.9,1.7
		c0.2,0.6,0.4,1.3,0.4,2h-11.2v10.7c-0.7,0.2-1.3,0.2-2,0.2c-0.7,0-1.4-0.1-2-0.3v-10.7l-11.3,0c0.1-0.7,0.3-1.3,0.5-1.9
		c0.2-0.7,0.5-1.3,0.9-1.8h9.8L714.5,438.2z"/>
	<path id="Path_132" class="st1" d="M722.4,454c-1.7,2.2-4.4,3.4-7.1,3.3c-1.1-0.1-2.1-0.4-3.1-0.8c1.4-2,1-4.3,1.1-6.5
		c0.1-3.2,3.1-7.4,3.7-8c-0.3,1.4-1.3,8.5,0.7,9.3c2.4,0.9,5.8-2.2,7.8-3.9C725.4,449.4,723.5,452.6,722.4,454"/>
	<path id="Path_133" class="st4" d="M715.6,457.3c-0.1,0-0.2,0-0.3,0c-1.1-0.1-2.1-0.4-3.2-0.8l0,0l0,0c1.1-1.5,1.1-3.2,1-5
		c0-0.5,0-1,0-1.6c0.1-3.2,3.2-7.5,3.7-8l0.1-0.1l0,0.1c-0.3,1.4-1.3,8.5,0.7,9.3c2.3,0.9,5.5-1.9,7.4-3.6c0.1-0.1,0.2-0.2,0.3-0.3
		l0.1,0v0.1c0,1.9-1.8,5-3,6.5C720.8,456.1,718.3,457.3,715.6,457.3 M712.2,456.5c1,0.4,2,0.6,3.1,0.7c0.1,0,0.2,0,0.3,0
		c2.7,0,5.2-1.2,6.8-3.3c1.2-1.5,2.9-4.5,3-6.4l-0.3,0.2c-2.1,1.8-5.2,4.5-7.5,3.6c-1.9-0.8-1.1-7.4-0.7-9.2
		c-0.7,0.8-3.4,4.8-3.6,7.8c0,0.5,0,1,0,1.6C713.3,453.3,713.3,455,712.2,456.5"/>
	<path id="Path_134" class="st0" d="M707.3,456.2c0,0,0.5-2,5.1-1.9l-0.6,1.8C710.3,455.7,708.8,455.7,707.3,456.2"/>
	<path id="Path_135" class="st2" d="M715.5,457.7c-0.1,0-0.2,0-0.3,0c-1.1-0.1-2.2-0.4-3.3-0.8l-0.5-0.2l0.3-0.4c1-1.4,1-3,1-4.8
		c0-0.5,0-1.1,0-1.6c0.2-3.4,3.2-7.7,3.8-8.2l0.9-0.9l-0.2,1.2c-0.5,2.3-1,8.3,0.5,8.9c2.1,0.8,5.2-1.9,7.1-3.5l1-0.8v0.8
		c0,2.2-2.1,5.5-3.1,6.8C720.9,456.4,718.3,457.7,715.5,457.7 M712.7,456.4c0.8,0.3,1.7,0.5,2.6,0.6c2.7,0.1,5.2-1.1,6.8-3.2
		c1.3-1.6,2.2-3.4,2.8-5.4c-2.1,1.8-5.1,4.2-7.5,3.3c-1.9-0.7-1.5-5.7-1.2-8.2c-1,1.6-2.6,4.3-2.7,6.5c0,0.5,0,1,0,1.5
		C713.7,453.2,713.4,454.9,712.7,456.4"/>
</g>
</svg>
